<svg xmlns="http://www.w3.org/2000/svg" xmlns:xlink="http://www.w3.org/1999/xlink" width="816" zoomAndPan="magnify" viewBox="0 0 612 791.999994" height="1056" preserveAspectRatio="xMidYMid meet" version="1.0"><defs><clipPath id="2f06ab87e8"><path d="M 0 49.878906 L 276.554688 49.878906 L 276.554688 156.046875 L 0 156.046875 Z M 0 49.878906 " clip-rule="nonzero"/></clipPath><clipPath id="18c0da1b68"><path d="M 0 0.878906 L 276.554688 0.878906 L 276.554688 107.046875 L 0 107.046875 Z M 0 0.878906 " clip-rule="nonzero"/></clipPath><clipPath id="6ac9df6f0c"><rect x="0" width="277" y="0" height="108"/></clipPath><clipPath id="79db9d093a"><path d="M 0 677.574219 L 612 677.574219 L 612 738.015625 L 0 738.015625 Z M 0 677.574219 " clip-rule="nonzero"/></clipPath><clipPath id="5322ae4c95"><path d="M 0 0.574219 L 612 0.574219 L 612 61.015625 L 0 61.015625 Z M 0 0.574219 " clip-rule="nonzero"/></clipPath><clipPath id="09b9524c7b"><rect x="0" width="612" y="0" height="62"/></clipPath><clipPath id="5c6679b9b4"><path d="M 31.984375 49.878906 L 580.015625 49.878906 L 580.015625 738.015625 L 31.984375 738.015625 Z M 31.984375 49.878906 " clip-rule="nonzero"/></clipPath><clipPath id="e871e26be3"><path d="M 0.984375 0.878906 L 549.015625 0.878906 L 549.015625 689 L 0.984375 689 Z M 0.984375 0.878906 " clip-rule="nonzero"/></clipPath><clipPath id="f2184ba115"><rect x="0" width="550" y="0" height="690"/></clipPath><clipPath id="7628f277c3"><path d="M 0 207.007812 L 23.753906 207.007812 L 23.753906 296.417969 L 0 296.417969 Z M 0 207.007812 " clip-rule="nonzero"/></clipPath><clipPath id="7065d09765"><path d="M -20.949219 207.007812 C -45.640625 207.007812 -65.65625 227.023438 -65.65625 251.714844 C -65.65625 276.402344 -45.640625 296.417969 -20.949219 296.417969 C 3.738281 296.417969 23.753906 276.402344 23.753906 251.714844 C 23.753906 227.023438 3.738281 207.007812 -20.949219 207.007812 Z M -20.949219 207.007812 " clip-rule="nonzero"/></clipPath><clipPath id="4448453bb1"><path d="M 0 0.0078125 L 23.753906 0.0078125 L 23.753906 89.417969 L 0 89.417969 Z M 0 0.0078125 " clip-rule="nonzero"/></clipPath><clipPath id="2f4722d763"><path d="M -20.949219 0.0078125 C -45.640625 0.0078125 -65.65625 20.023438 -65.65625 44.714844 C -65.65625 69.402344 -45.640625 89.417969 -20.949219 89.417969 C 3.738281 89.417969 23.753906 69.402344 23.753906 44.714844 C 23.753906 20.023438 3.738281 0.0078125 -20.949219 0.0078125 Z M -20.949219 0.0078125 " clip-rule="nonzero"/></clipPath><clipPath id="89b46c2a95"><rect x="0" width="24" y="0" height="90"/></clipPath><clipPath id="9431cd281e"><path d="M 0 512.003906 L 23.753906 512.003906 L 23.753906 601.417969 L 0 601.417969 Z M 0 512.003906 " clip-rule="nonzero"/></clipPath><clipPath id="b7046dac68"><path d="M -20.949219 512.003906 C -45.640625 512.003906 -65.65625 532.019531 -65.65625 556.710938 C -65.65625 581.402344 -45.640625 601.414062 -20.949219 601.414062 C 3.738281 601.414062 23.753906 581.402344 23.753906 556.710938 C 23.753906 532.019531 3.738281 512.003906 -20.949219 512.003906 Z M -20.949219 512.003906 " clip-rule="nonzero"/></clipPath><clipPath id="9ec80fecc4"><path d="M 0 0.00390625 L 23.753906 0.00390625 L 23.753906 89.417969 L 0 89.417969 Z M 0 0.00390625 " clip-rule="nonzero"/></clipPath><clipPath id="5071ff560b"><path d="M -20.949219 0.00390625 C -45.640625 0.00390625 -65.65625 20.019531 -65.65625 44.710938 C -65.65625 69.402344 -45.640625 89.414062 -20.949219 89.414062 C 3.738281 89.414062 23.753906 69.402344 23.753906 44.710938 C 23.753906 20.019531 3.738281 0.00390625 -20.949219 0.00390625 Z M -20.949219 0.00390625 " clip-rule="nonzero"/></clipPath><clipPath id="cf0b5df98f"><rect x="0" width="24" y="0" height="90"/></clipPath><clipPath id="9a1d738e70"><path d="M 588.691406 351.292969 L 612 351.292969 L 612 440.707031 L 588.691406 440.707031 Z M 588.691406 351.292969 " clip-rule="nonzero"/></clipPath><clipPath id="37d6fff9c8"><path d="M 633.398438 351.292969 C 608.707031 351.292969 588.691406 371.308594 588.691406 396 C 588.691406 420.691406 608.707031 440.707031 633.398438 440.707031 C 658.089844 440.707031 678.105469 420.691406 678.105469 396 C 678.105469 371.308594 658.089844 351.292969 633.398438 351.292969 Z M 633.398438 351.292969 " clip-rule="nonzero"/></clipPath><clipPath id="b24b1dccf3"><path d="M 0.691406 0.292969 L 24 0.292969 L 24 89.707031 L 0.691406 89.707031 Z M 0.691406 0.292969 " clip-rule="nonzero"/></clipPath><clipPath id="73e3bb1af8"><path d="M 45.398438 0.292969 C 20.707031 0.292969 0.691406 20.308594 0.691406 45 C 0.691406 69.691406 20.707031 89.707031 45.398438 89.707031 C 70.089844 89.707031 90.105469 69.691406 90.105469 45 C 90.105469 20.308594 70.089844 0.292969 45.398438 0.292969 Z M 45.398438 0.292969 " clip-rule="nonzero"/></clipPath><clipPath id="2f8d3f4fda"><rect x="0" width="24" y="0" height="90"/></clipPath><clipPath id="6695a6f676"><path d="M 410.539062 766.125 L 499.949219 766.125 L 499.949219 792 L 410.539062 792 Z M 410.539062 766.125 " clip-rule="nonzero"/></clipPath><clipPath id="4309ef7ad6"><path d="M 455.246094 766.125 C 430.554688 766.125 410.539062 786.140625 410.539062 810.832031 C 410.539062 835.523438 430.554688 855.539062 455.246094 855.539062 C 479.933594 855.539062 499.949219 835.523438 499.949219 810.832031 C 499.949219 786.140625 479.933594 766.125 455.246094 766.125 Z M 455.246094 766.125 " clip-rule="nonzero"/></clipPath><clipPath id="345e23be28"><path d="M 0.539062 0.125 L 89.949219 0.125 L 89.949219 26 L 0.539062 26 Z M 0.539062 0.125 " clip-rule="nonzero"/></clipPath><clipPath id="feecb501fc"><path d="M 45.246094 0.125 C 20.554688 0.125 0.539062 20.140625 0.539062 44.832031 C 0.539062 69.523438 20.554688 89.539062 45.246094 89.539062 C 69.933594 89.539062 89.949219 69.523438 89.949219 44.832031 C 89.949219 20.140625 69.933594 0.125 45.246094 0.125 Z M 45.246094 0.125 " clip-rule="nonzero"/></clipPath><clipPath id="d2c8c9ad56"><rect x="0" width="90" y="0" height="26"/></clipPath><clipPath id="91528674d4"><path d="M 341.492188 0 L 430.902344 0 L 430.902344 31.414062 L 341.492188 31.414062 Z M 341.492188 0 " clip-rule="nonzero"/></clipPath><clipPath id="050d40c789"><path d="M 386.199219 -58 C 361.507812 -58 341.492188 -37.984375 341.492188 -13.292969 C 341.492188 11.398438 361.507812 31.414062 386.199219 31.414062 C 410.886719 31.414062 430.902344 11.398438 430.902344 -13.292969 C 430.902344 -37.984375 410.886719 -58 386.199219 -58 Z M 386.199219 -58 " clip-rule="nonzero"/></clipPath><clipPath id="0dd9a1d0a0"><path d="M 0.492188 0 L 89.902344 0 L 89.902344 31.414062 L 0.492188 31.414062 Z M 0.492188 0 " clip-rule="nonzero"/></clipPath><clipPath id="fd84c5aa37"><path d="M 45.199219 -58 C 20.507812 -58 0.492188 -37.984375 0.492188 -13.292969 C 0.492188 11.398438 20.507812 31.414062 45.199219 31.414062 C 69.886719 31.414062 89.902344 11.398438 89.902344 -13.292969 C 89.902344 -37.984375 69.886719 -58 45.199219 -58 Z M 45.199219 -58 " clip-rule="nonzero"/></clipPath><clipPath id="51ca617b95"><rect x="0" width="90" y="0" height="32"/></clipPath><clipPath id="a2d8794ab0"><path d="M 237.75 148.800781 L 367.542969 148.800781 L 367.542969 159.890625 L 237.75 159.890625 Z M 237.75 148.800781 " clip-rule="nonzero"/></clipPath><clipPath id="b318dc4c0f"><path d="M 0.75 0.800781 L 130.542969 0.800781 L 130.542969 11.890625 L 0.75 11.890625 Z M 0.75 0.800781 " clip-rule="nonzero"/></clipPath><clipPath id="9a294a9ec7"><rect x="0" width="131" y="0" height="12"/></clipPath><clipPath id="6965166985"><path d="M 55.476562 147.5 L 178.96875 147.5 L 178.96875 158.59375 L 55.476562 158.59375 Z M 55.476562 147.5 " clip-rule="nonzero"/></clipPath><clipPath id="3f1786e8e9"><path d="M 0.476562 0.5 L 123.96875 0.5 L 123.96875 11.59375 L 0.476562 11.59375 Z M 0.476562 0.5 " clip-rule="nonzero"/></clipPath><clipPath id="0df9f821c0"><rect x="0" width="124" y="0" height="12"/></clipPath><clipPath id="4a6ccaccb1"><path d="M 424.914062 57.152344 L 548.402344 57.152344 L 548.402344 68.246094 L 424.914062 68.246094 Z M 424.914062 57.152344 " clip-rule="nonzero"/></clipPath><clipPath id="2d3d297775"><path d="M 0.914062 0.152344 L 124.402344 0.152344 L 124.402344 11.246094 L 0.914062 11.246094 Z M 0.914062 0.152344 " clip-rule="nonzero"/></clipPath><clipPath id="38af6bc73f"><rect x="0" width="125" y="0" height="12"/></clipPath></defs><rect x="-61.2" width="734.4" fill="#ffffff" y="-79.199999" height="950.399992" fill-opacity="1"/><rect x="-61.2" width="734.4" fill="#559d4d" y="-79.199999" height="950.399992" fill-opacity="1"/><g clip-path="url(#2f06ab87e8)"><g transform="matrix(1, 0, 0, 1, 0, 49)"><g clip-path="url(#6ac9df6f0c)"><g clip-path="url(#18c0da1b68)"><path fill="#babec0" d="M -65.65625 0.878906 L 276.488281 0.878906 L 276.488281 107.046875 L -65.65625 107.046875 Z M -65.65625 0.878906 " fill-opacity="1" fill-rule="nonzero"/></g></g></g></g><g clip-path="url(#79db9d093a)"><g transform="matrix(1, 0, 0, 1, 0, 677)"><g clip-path="url(#09b9524c7b)"><g clip-path="url(#5322ae4c95)"><path fill="#babec0" d="M -8.253906 0.574219 L 611.976562 0.574219 L 611.976562 61.015625 L -8.253906 61.015625 Z M -8.253906 0.574219 " fill-opacity="1" fill-rule="nonzero"/></g></g></g></g><g clip-path="url(#5c6679b9b4)"><g transform="matrix(1, 0, 0, 1, 31, 49)"><g clip-path="url(#f2184ba115)"><g clip-path="url(#e871e26be3)"><path fill="#babec0" d="M 0.984375 0.878906 L 549.015625 0.878906 L 549.015625 688.054688 L 0.984375 688.054688 Z M 0.984375 0.878906 " fill-opacity="1" fill-rule="nonzero"/></g></g></g></g><path stroke-linecap="butt" transform="matrix(0, 0.75, -0.75, 0, 62.699707, 156.050463)" fill="none" stroke-linejoin="miter" d="M 0.000424791 3.500651 L 695.370251 3.500651 " stroke="#868787" stroke-width="7" stroke-opacity="1" stroke-miterlimit="4"/><path stroke-linecap="butt" transform="matrix(0, 0.75, -0.75, 0, 548.606039, 49.880442)" fill="none" stroke-linejoin="miter" d="M -0.00204703 3.500761 L 836.930286 3.500761 " stroke="#868787" stroke-width="7" stroke-opacity="1" stroke-miterlimit="4"/><path stroke-linecap="butt" transform="matrix(0, 0.75, -0.75, 0, 305.651939, 156.050463)" fill="none" stroke-linejoin="miter" d="M 0.000424791 3.499461 L 695.370251 3.499461 " stroke="#868787" stroke-width="7" stroke-opacity="1" stroke-miterlimit="4"/><path stroke-linecap="butt" transform="matrix(0.75, 0, 0, 0.75, 58.847973, 186.779176)" fill="none" stroke-linejoin="miter" d="M -0.000422485 3.497558 L 93.832916 3.497558 " stroke="#868787" stroke-width="7" stroke-opacity="1" stroke-miterlimit="4"/><path stroke-linecap="butt" transform="matrix(0.75, 0, 0, 0.75, 58.847973, 224.155)" fill="none" stroke-linejoin="miter" d="M -0.000422485 3.501667 L 93.832916 3.501667 " stroke="#868787" stroke-width="7" stroke-opacity="1" stroke-miterlimit="4"/><path stroke-linecap="butt" transform="matrix(0.75, 0, 0, 0.75, 58.847973, 261.706385)" fill="none" stroke-linejoin="miter" d="M -0.000422485 3.500862 L 93.832916 3.500862 " stroke="#868787" stroke-width="7" stroke-opacity="1" stroke-miterlimit="4"/><path stroke-linecap="butt" transform="matrix(0.75, 0, 0, 0.75, 58.847973, 299.082192)" fill="none" stroke-linejoin="miter" d="M -0.000422485 3.499785 L 93.832916 3.499785 " stroke="#868787" stroke-width="7" stroke-opacity="1" stroke-miterlimit="4"/><path stroke-linecap="butt" transform="matrix(0.75, 0, 0, 0.75, 58.847973, 336.633606)" fill="none" stroke-linejoin="miter" d="M -0.000422485 3.498943 L 93.832916 3.498943 " stroke="#868787" stroke-width="7" stroke-opacity="1" stroke-miterlimit="4"/><path stroke-linecap="butt" transform="matrix(0.75, 0, 0, 0.75, 58.847973, 374.009416)" fill="none" stroke-linejoin="miter" d="M -0.000422485 3.497862 L 93.832916 3.497862 " stroke="#868787" stroke-width="7" stroke-opacity="1" stroke-miterlimit="4"/><path stroke-linecap="butt" transform="matrix(0.75, 0, 0, 0.75, 58.847973, 411.560808)" fill="none" stroke-linejoin="miter" d="M -0.000422485 3.502257 L 93.832916 3.502257 " stroke="#868787" stroke-width="7" stroke-opacity="1" stroke-miterlimit="4"/><path stroke-linecap="butt" transform="matrix(0.75, 0, 0, 0.75, 58.847973, 448.936606)" fill="none" stroke-linejoin="miter" d="M -0.000422485 3.501193 L 93.832916 3.501193 " stroke="#868787" stroke-width="7" stroke-opacity="1" stroke-miterlimit="4"/><path stroke-linecap="butt" transform="matrix(0.75, 0, 0, 0.75, 58.847973, 486.488012)" fill="none" stroke-linejoin="miter" d="M -0.000422485 3.500359 L 93.832916 3.500359 " stroke="#868787" stroke-width="7" stroke-opacity="1" stroke-miterlimit="4"/><path stroke-linecap="butt" transform="matrix(0.75, 0, 0, 0.75, 58.847973, 523.86381)" fill="none" stroke-linejoin="miter" d="M -0.000422485 3.499295 L 93.832916 3.499295 " stroke="#868787" stroke-width="7" stroke-opacity="1" stroke-miterlimit="4"/><path stroke-linecap="butt" transform="matrix(0.75, 0, 0, 0.75, 58.847973, 561.41524)" fill="none" stroke-linejoin="miter" d="M -0.000422485 3.49843 L 93.832916 3.49843 " stroke="#868787" stroke-width="7" stroke-opacity="1" stroke-miterlimit="4"/><path stroke-linecap="butt" transform="matrix(0.75, 0, 0, 0.75, 58.847973, 598.791014)" fill="none" stroke-linejoin="miter" d="M -0.000422485 3.497398 L 93.832916 3.497398 " stroke="#868787" stroke-width="7" stroke-opacity="1" stroke-miterlimit="4"/><path stroke-linecap="butt" transform="matrix(0.75, 0, 0, 0.75, 58.847973, 636.342468)" fill="none" stroke-linejoin="miter" d="M -0.000422485 3.501709 L 93.832916 3.501709 " stroke="#868787" stroke-width="7" stroke-opacity="1" stroke-miterlimit="4"/><path stroke-linecap="butt" transform="matrix(0.75, 0, 0, 0.75, -20.950446, 673.718243)" fill="none" stroke-linejoin="miter" d="M 0.00163682 3.500677 L 200.230813 3.500677 " stroke="#868787" stroke-width="7" stroke-opacity="1" stroke-miterlimit="4"/><path stroke-linecap="butt" transform="matrix(0.75, 0, 0, 0.75, 475.609659, 186.779176)" fill="none" stroke-linejoin="miter" d="M -0.000378445 3.497558 L 93.83296 3.497558 " stroke="#868787" stroke-width="7" stroke-opacity="1" stroke-miterlimit="4"/><path stroke-linecap="butt" transform="matrix(0.75, 0, 0, 0.75, 475.609659, 224.155)" fill="none" stroke-linejoin="miter" d="M -0.000378445 3.501667 L 93.83296 3.501667 " stroke="#868787" stroke-width="7" stroke-opacity="1" stroke-miterlimit="4"/><path stroke-linecap="butt" transform="matrix(0.75, 0, 0, 0.75, 475.609659, 261.706385)" fill="none" stroke-linejoin="miter" d="M -0.000378445 3.500862 L 93.83296 3.500862 " stroke="#868787" stroke-width="7" stroke-opacity="1" stroke-miterlimit="4"/><path stroke-linecap="butt" transform="matrix(0.75, 0, 0, 0.75, 475.609659, 299.082192)" fill="none" stroke-linejoin="miter" d="M -0.000378445 3.499785 L 93.83296 3.499785 " stroke="#868787" stroke-width="7" stroke-opacity="1" stroke-miterlimit="4"/><path stroke-linecap="butt" transform="matrix(0.75, 0, 0, 0.75, 475.609659, 336.633606)" fill="none" stroke-linejoin="miter" d="M -0.000378445 3.498943 L 93.83296 3.498943 " stroke="#868787" stroke-width="7" stroke-opacity="1" stroke-miterlimit="4"/><path stroke-linecap="butt" transform="matrix(0.75, 0, 0, 0.75, 475.609659, 374.009416)" fill="none" stroke-linejoin="miter" d="M -0.000378445 3.497862 L 93.83296 3.497862 " stroke="#868787" stroke-width="7" stroke-opacity="1" stroke-miterlimit="4"/><path stroke-linecap="butt" transform="matrix(0.75, 0, 0, 0.75, 475.609659, 411.560808)" fill="none" stroke-linejoin="miter" d="M -0.000378445 3.502257 L 93.83296 3.502257 " stroke="#868787" stroke-width="7" stroke-opacity="1" stroke-miterlimit="4"/><path stroke-linecap="butt" transform="matrix(0.75, 0, 0, 0.75, 475.609659, 448.936606)" fill="none" stroke-linejoin="miter" d="M -0.000378445 3.501193 L 93.83296 3.501193 " stroke="#868787" stroke-width="7" stroke-opacity="1" stroke-miterlimit="4"/><path stroke-linecap="butt" transform="matrix(0.75, 0, 0, 0.75, 475.609659, 486.488012)" fill="none" stroke-linejoin="miter" d="M -0.000378445 3.500359 L 93.83296 3.500359 " stroke="#868787" stroke-width="7" stroke-opacity="1" stroke-miterlimit="4"/><path stroke-linecap="butt" transform="matrix(0.75, 0, 0, 0.75, 475.609659, 523.86381)" fill="none" stroke-linejoin="miter" d="M -0.000378445 3.499295 L 93.83296 3.499295 " stroke="#868787" stroke-width="7" stroke-opacity="1" stroke-miterlimit="4"/><path stroke-linecap="butt" transform="matrix(0.75, 0, 0, 0.75, 475.609659, 561.41524)" fill="none" stroke-linejoin="miter" d="M -0.000378445 3.49843 L 93.83296 3.49843 " stroke="#868787" stroke-width="7" stroke-opacity="1" stroke-miterlimit="4"/><path stroke-linecap="butt" transform="matrix(0.75, 0, 0, 0.75, 475.609659, 598.791014)" fill="none" stroke-linejoin="miter" d="M -0.000378445 3.497398 L 93.83296 3.497398 " stroke="#868787" stroke-width="7" stroke-opacity="1" stroke-miterlimit="4"/><path stroke-linecap="butt" transform="matrix(0.75, 0, 0, 0.75, 475.609659, 636.342468)" fill="none" stroke-linejoin="miter" d="M -0.000378445 3.501709 L 93.83296 3.501709 " stroke="#868787" stroke-width="7" stroke-opacity="1" stroke-miterlimit="4"/><path stroke-linecap="butt" transform="matrix(0.75, 0.000000000000000439, -0.000000000000000439, 0.75, 475.609659, 673.718243)" fill="none" stroke-linejoin="miter" d="M -0.000378445 3.500677 L 194.062131 3.500677 " stroke="#868787" stroke-width="7" stroke-opacity="1" stroke-miterlimit="4"/><path stroke-linecap="butt" transform="matrix(0.75, 0, 0, 0.75, 240.903828, 186.779176)" fill="none" stroke-linejoin="miter" d="M -0.00197911 3.497558 L 165.675112 3.497558 " stroke="#868787" stroke-width="7" stroke-opacity="1" stroke-miterlimit="4"/><path stroke-linecap="butt" transform="matrix(0.75, 0, 0, 0.75, 240.903828, 224.155)" fill="none" stroke-linejoin="miter" d="M -0.00197911 3.501667 L 165.675112 3.501667 " stroke="#868787" stroke-width="7" stroke-opacity="1" stroke-miterlimit="4"/><path stroke-linecap="butt" transform="matrix(0.75, 0, 0, 0.75, 240.903828, 261.706385)" fill="none" stroke-linejoin="miter" d="M -0.00197911 3.500862 L 165.675112 3.500862 " stroke="#868787" stroke-width="7" stroke-opacity="1" stroke-miterlimit="4"/><path stroke-linecap="butt" transform="matrix(0.75, 0, 0, 0.75, 240.903828, 299.082192)" fill="none" stroke-linejoin="miter" d="M -0.00197911 3.499785 L 165.675112 3.499785 " stroke="#868787" stroke-width="7" stroke-opacity="1" stroke-miterlimit="4"/><path stroke-linecap="butt" transform="matrix(0.75, 0, 0, 0.75, 240.903828, 336.633606)" fill="none" stroke-linejoin="miter" d="M -0.00197911 3.498943 L 165.675112 3.498943 " stroke="#868787" stroke-width="7" stroke-opacity="1" stroke-miterlimit="4"/><path stroke-linecap="butt" transform="matrix(0.75, 0, 0, 0.75, 240.903828, 374.009416)" fill="none" stroke-linejoin="miter" d="M -0.00197911 3.497862 L 165.675112 3.497862 " stroke="#868787" stroke-width="7" stroke-opacity="1" stroke-miterlimit="4"/><path stroke-linecap="butt" transform="matrix(0.75, 0, 0, 0.75, 240.903828, 411.560808)" fill="none" stroke-linejoin="miter" d="M -0.00197911 3.502257 L 165.675112 3.502257 " stroke="#868787" stroke-width="7" stroke-opacity="1" stroke-miterlimit="4"/><path stroke-linecap="butt" transform="matrix(0.75, 0, 0, 0.75, 240.903828, 448.936606)" fill="none" stroke-linejoin="miter" d="M -0.00197911 3.501193 L 165.675112 3.501193 " stroke="#868787" stroke-width="7" stroke-opacity="1" stroke-miterlimit="4"/><path stroke-linecap="butt" transform="matrix(0.75, 0, 0, 0.75, 240.903828, 486.488012)" fill="none" stroke-linejoin="miter" d="M -0.00197911 3.500359 L 165.675112 3.500359 " stroke="#868787" stroke-width="7" stroke-opacity="1" stroke-miterlimit="4"/><path stroke-linecap="butt" transform="matrix(0.75, 0, 0, 0.75, 240.903828, 523.86381)" fill="none" stroke-linejoin="miter" d="M -0.00197911 3.499295 L 165.675112 3.499295 " stroke="#868787" stroke-width="7" stroke-opacity="1" stroke-miterlimit="4"/><path stroke-linecap="butt" transform="matrix(0.75, 0, 0, 0.75, 240.903828, 561.41524)" fill="none" stroke-linejoin="miter" d="M -0.00197911 3.49843 L 165.675112 3.49843 " stroke="#868787" stroke-width="7" stroke-opacity="1" stroke-miterlimit="4"/><path stroke-linecap="butt" transform="matrix(0.75, 0, 0, 0.75, 240.903828, 598.791014)" fill="none" stroke-linejoin="miter" d="M -0.00197911 3.497398 L 165.675112 3.497398 " stroke="#868787" stroke-width="7" stroke-opacity="1" stroke-miterlimit="4"/><path stroke-linecap="butt" transform="matrix(0.75, 0, 0, 0.75, 240.903828, 636.342468)" fill="none" stroke-linejoin="miter" d="M -0.00197911 3.501709 L 165.675112 3.501709 " stroke="#868787" stroke-width="7" stroke-opacity="1" stroke-miterlimit="4"/><path stroke-linecap="butt" transform="matrix(0.75, 0, 0, 0.75, 240.903828, 673.718243)" fill="none" stroke-linejoin="miter" d="M -0.00197911 3.500677 L 165.675112 3.500677 " stroke="#868787" stroke-width="7" stroke-opacity="1" stroke-miterlimit="4"/><path stroke-linecap="butt" transform="matrix(0.75, 0, 0, 0.75, 475.609659, 111.851966)" fill="none" stroke-linejoin="miter" d="M -0.000378445 3.499462 L 93.83296 3.499462 " stroke="#868787" stroke-width="7" stroke-opacity="1" stroke-miterlimit="4"/><path stroke-linecap="butt" transform="matrix(0.75, 0, 0, 0.75, 475.609659, 149.227791)" fill="none" stroke-linejoin="miter" d="M -0.000378445 3.498362 L 93.83296 3.498362 " stroke="#868787" stroke-width="7" stroke-opacity="1" stroke-miterlimit="4"/><path stroke-linecap="butt" transform="matrix(0.75, 0, 0, 0.75, 475.609659, 75.53177)" fill="none" stroke-linejoin="miter" d="M -0.000378445 3.499307 L 93.83296 3.499307 " stroke="#868787" stroke-width="7" stroke-opacity="1" stroke-miterlimit="4"/><path stroke-linecap="butt" transform="matrix(0.75, 0.000000000000000082, -0.000000000000000082, 0.75, -8.254085, 47.252826)" fill="none" stroke-linejoin="miter" d="M 0.000238435 3.501441 L 784.359652 3.501441 " stroke="#000000" stroke-width="7" stroke-opacity="1" stroke-miterlimit="4"/><path stroke-linecap="butt" transform="matrix(0.75, 0.000000000000000103, -0.000000000000000103, 0.75, -8.254085, 735.39056)" fill="none" stroke-linejoin="miter" d="M 0.000238435 3.500087 L 827.005488 3.500087 " stroke="#000000" stroke-width="7" stroke-opacity="1" stroke-miterlimit="4"/><g clip-path="url(#7628f277c3)"><g clip-path="url(#7065d09765)"><g transform="matrix(1, 0, 0, 1, 0, 207)"><g clip-path="url(#89b46c2a95)"><g clip-path="url(#4448453bb1)"><g clip-path="url(#2f4722d763)"><path fill="#0d6232" d="M -65.65625 0.0078125 L 23.753906 0.0078125 L 23.753906 89.417969 L -65.65625 89.417969 Z M -65.65625 0.0078125 " fill-opacity="1" fill-rule="nonzero"/></g></g></g></g></g></g><g clip-path="url(#9431cd281e)"><g clip-path="url(#b7046dac68)"><g transform="matrix(1, 0, 0, 1, 0, 512)"><g clip-path="url(#cf0b5df98f)"><g clip-path="url(#9ec80fecc4)"><g clip-path="url(#5071ff560b)"><path fill="#0d6232" d="M -65.65625 0.00390625 L 23.753906 0.00390625 L 23.753906 89.417969 L -65.65625 89.417969 Z M -65.65625 0.00390625 " fill-opacity="1" fill-rule="nonzero"/></g></g></g></g></g></g><g clip-path="url(#9a1d738e70)"><g clip-path="url(#37d6fff9c8)"><g transform="matrix(1, 0, 0, 1, 588, 351)"><g clip-path="url(#2f8d3f4fda)"><g clip-path="url(#b24b1dccf3)"><g clip-path="url(#73e3bb1af8)"><path fill="#0d6232" d="M 0.691406 0.292969 L 90.105469 0.292969 L 90.105469 89.707031 L 0.691406 89.707031 Z M 0.691406 0.292969 " fill-opacity="1" fill-rule="nonzero"/></g></g></g></g></g></g><g clip-path="url(#6695a6f676)"><g clip-path="url(#4309ef7ad6)"><g transform="matrix(1, 0, 0, 1, 410, 766)"><g clip-path="url(#d2c8c9ad56)"><g clip-path="url(#345e23be28)"><g clip-path="url(#feecb501fc)"><path fill="#0d6232" d="M 0.539062 0.125 L 89.949219 0.125 L 89.949219 89.539062 L 0.539062 89.539062 Z M 0.539062 0.125 " fill-opacity="1" fill-rule="nonzero"/></g></g></g></g></g></g><g clip-path="url(#91528674d4)"><g clip-path="url(#050d40c789)"><g transform="matrix(1, 0, 0, 1, 341, -0.000000000000060192)"><g clip-path="url(#51ca617b95)"><g clip-path="url(#0dd9a1d0a0)"><g clip-path="url(#fd84c5aa37)"><path fill="#0d6232" d="M 0.492188 -58 L 89.902344 -58 L 89.902344 31.414062 L 0.492188 31.414062 Z M 0.492188 -58 " fill-opacity="1" fill-rule="nonzero"/></g></g></g></g></g></g><g clip-path="url(#a2d8794ab0)"><g transform="matrix(1, 0, 0, 1, 237, 148)"><g clip-path="url(#9a294a9ec7)"><g clip-path="url(#b318dc4c0f)"><path fill="#868787" d="M 0.75 0.800781 L 130.523438 0.800781 L 130.523438 11.890625 L 0.75 11.890625 Z M 0.75 0.800781 " fill-opacity="1" fill-rule="nonzero"/></g></g></g></g><path fill="#babec0" d="M 240.902344 150.222656 L 249.152344 150.222656 L 249.152344 158.472656 L 240.902344 158.472656 M 257.402344 150.222656 L 265.652344 150.222656 L 265.652344 158.472656 L 257.402344 158.472656 M 273.902344 150.222656 L 282.152344 150.222656 L 282.152344 158.472656 L 273.902344 158.472656 M 290.402344 150.222656 L 298.652344 150.222656 L 298.652344 158.472656 L 290.402344 158.472656 M 306.902344 150.222656 L 315.152344 150.222656 L 315.152344 158.472656 L 306.902344 158.472656 M 323.402344 150.222656 L 331.652344 150.222656 L 331.652344 158.472656 L 323.402344 158.472656 M 339.902344 150.222656 L 348.152344 150.222656 L 348.152344 158.472656 L 339.902344 158.472656 M 356.402344 150.222656 L 364.652344 150.222656 L 364.652344 158.472656 L 356.402344 158.472656 " fill-opacity="1" fill-rule="nonzero"/><g clip-path="url(#6965166985)"><g transform="matrix(1, 0, 0, 1, 55, 147)"><g clip-path="url(#0df9f821c0)"><g clip-path="url(#3f1786e8e9)"><path fill="#868787" d="M 0.476562 0.5 L 123.96875 0.5 L 123.96875 11.59375 L 0.476562 11.59375 Z M 0.476562 0.5 " fill-opacity="1" fill-rule="nonzero"/></g></g></g></g><path fill="#babec0" d="M 57.242188 148.921875 L 65.492188 148.921875 L 65.492188 157.171875 L 57.242188 157.171875 M 73.742188 148.921875 L 81.992188 148.921875 L 81.992188 157.171875 L 73.742188 157.171875 M 90.242188 148.921875 L 98.492188 148.921875 L 98.492188 157.171875 L 90.242188 157.171875 M 106.742188 148.921875 L 114.992188 148.921875 L 114.992188 157.171875 L 106.742188 157.171875 M 123.242188 148.921875 L 131.492188 148.921875 L 131.492188 157.171875 L 123.242188 157.171875 M 139.742188 148.921875 L 147.992188 148.921875 L 147.992188 157.171875 L 139.742188 157.171875 M 156.242188 148.921875 L 164.492188 148.921875 L 164.492188 157.171875 L 156.242188 157.171875 M 172.742188 148.921875 L 176.15625 148.921875 L 176.15625 157.171875 L 172.742188 157.171875 " fill-opacity="1" fill-rule="nonzero"/><g clip-path="url(#4a6ccaccb1)"><g transform="matrix(1, 0, 0, 1, 424, 57)"><g clip-path="url(#38af6bc73f)"><g clip-path="url(#2d3d297775)"><path fill="#868787" d="M 0.914062 0.152344 L 124.402344 0.152344 L 124.402344 11.246094 L 0.914062 11.246094 Z M 0.914062 0.152344 " fill-opacity="1" fill-rule="nonzero"/></g></g></g></g><path fill="#babec0" d="M 427.070312 58.574219 L 435.320312 58.574219 L 435.320312 66.824219 L 427.070312 66.824219 M 443.570312 58.574219 L 451.820312 58.574219 L 451.820312 66.824219 L 443.570312 66.824219 M 460.070312 58.574219 L 468.320312 58.574219 L 468.320312 66.824219 L 460.070312 66.824219 M 476.570312 58.574219 L 484.820312 58.574219 L 484.820312 66.824219 L 476.570312 66.824219 M 493.070312 58.574219 L 501.320312 58.574219 L 501.320312 66.824219 L 493.070312 66.824219 M 509.570312 58.574219 L 517.820312 58.574219 L 517.820312 66.824219 L 509.570312 66.824219 M 526.070312 58.574219 L 534.320312 58.574219 L 534.320312 66.824219 L 526.070312 66.824219 M 542.570312 58.574219 L 545.984375 58.574219 L 545.984375 66.824219 L 542.570312 66.824219 " fill-opacity="1" fill-rule="nonzero"/><path stroke-linecap="butt" transform="matrix(0, 0.75, -0.75, 0, 580.011718, 49.880442)" fill="none" stroke-linejoin="miter" d="M -0.00204703 3.499999 L 836.930286 3.499999 " stroke="#000000" stroke-width="7" stroke-opacity="1" stroke-miterlimit="4"/><path stroke-linecap="butt" transform="matrix(0, 0.75, -0.75, 0, 34.60618, 154.550463)" fill="none" stroke-linejoin="miter" d="M 0.000424692 3.500948 L 697.370251 3.500948 " stroke="#000000" stroke-width="7" stroke-opacity="1" stroke-miterlimit="4"/><path stroke-linecap="butt" transform="matrix(0.749984, -0.00483211, 0.00483211, 0.749984, -18.261284, 152.259915)" fill="none" stroke-linejoin="miter" d="M -0.00231152 3.502463 L 70.134571 3.501216 " stroke="#000000" stroke-width="7" stroke-opacity="1" stroke-miterlimit="4"/><path stroke-linecap="butt" transform="matrix(0.749984, -0.00483211, 0.00483211, 0.749984, -18.278196, 673.887707)" fill="none" stroke-linejoin="miter" d="M -0.000572104 3.498752 L 70.13631 3.497505 " stroke="#000000" stroke-width="7" stroke-opacity="1" stroke-miterlimit="4"/><path stroke-linecap="butt" transform="matrix(0.749984, -0.00483211, 0.00483211, 0.749984, 574.616398, 673.718243)" fill="none" stroke-linejoin="miter" d="M -0.000668533 3.500745 L 70.136214 3.499498 " stroke="#000000" stroke-width="7" stroke-opacity="1" stroke-miterlimit="4"/></svg>